<?xml version="1.0" encoding="utf-8"?>
<!-- Svg Vector Icons : http://www.onlinewebfonts.com/icon -->
<!DOCTYPE svg PUBLIC "-//W3C//DTD SVG 1.1//EN" "http://www.w3.org/Graphics/SVG/1.1/DTD/svg11.dtd">
<svg version="1.1" xmlns="http://www.w3.org/2000/svg" xmlns:xlink="http://www.w3.org/1999/xlink" x="0px" y="0px" viewBox="0 0 1000 1000" enable-background="new 0 0 1000 1000" xml:space="preserve">
<metadata> Svg Vector Icons : http://www.onlinewebfonts.com/icon </metadata>
<g><g transform="translate(0.000000,511.000000) scale(0.100000,-0.100000)"><path d="M2708.7,4993.6c-307.2-100.9-488.3-341.6-486.1-646.6c0-291.2-96.3-181.1,2029-2308.7L6182.2,107.8L4251.7-1825C2119.5-3954.9,2220.4-3842.5,2220.4-4138.3c0-259.1,130.7-465.4,380.6-596.1c139.9-75.6,421.9-73.3,566.3,2.3c71.1,36.7,770.4,719.9,2299.6,2244.5C7223.1-733.6,7674.8-270.5,7720.6-176.5c75.7,155.9,80.3,392,9.2,552.5c-39,89.4-442.5,506.7-2242.3,2306.5C3816.1,4356.2,3265.9,4895,3178.7,4938.5C3057.2,5002.7,2818.8,5030.2,2708.7,4993.6z"/></g></g>
</svg>